 <svg  version="1.0" xmlns="http://www.w3.org/2000/svg"  width="900.000000pt" height="723.000000pt" viewBox="0 0 900.000000 723.000000"  preserveAspectRatio="xMidYMid meet">  <g transform="translate(0.000000,723.000000) scale(0.100000,-0.100000)" fill="#ffffff" stroke="none"> <path d="M7920 6751 c-14 -16 -734 -742 -1601 -1613 -867 -870 -1982 -1991 -2479 -2490 -496 -500 -908 -908 -914 -908 -6 0 -434 423 -952 941 -748 748 -945 940 -960 935 -11 -3 -174 -161 -362 -350 -303 -303 -343 -346 -334 -363 11 -20 2267 -2265 2322 -2311 72 -59 218 -122 284 -122 72 0 210 60 291 125 48 38 -178 -188 2610 2611 2896 2906 2845 2855 2834 2874 -4 8 -55 63 -111 121 -479 495 -563 579 -583 579 -11 0 -31 -13 -45 -29z"/> </g> </svg> 